<svg width="1099" height="782" viewBox="0 0 1099 782" fill="none" xmlns="http://www.w3.org/2000/svg">
<rect y="291" width="712" height="491" rx="28" fill="#FFF183"/>
<rect x="387" width="712" height="491" rx="28" fill="#D6C3FF"/>
<rect x="96" y="355" width="140" height="95" rx="5" fill="#65D3FF"/>
<path d="M483 83C483 80.2386 485.239 78 488 78H618C620.761 78 623 80.2386 623 83V168C623 170.761 620.761 173 618 173H488C485.239 173 483 170.761 483 168V83Z" fill="#FFF183"/>
<rect x="119" y="629" width="134" height="93" rx="5" fill="#D6C3FF"/>
<rect x="278" y="468" width="140" height="95" rx="5" fill="#FFAB89"/>
<rect x="474" y="582" width="134" height="93" rx="5" fill="#FFBEF3"/>
<rect x="483" y="329" width="140" height="93" rx="5" fill="white"/>
<rect x="792" y="199" width="140" height="95" rx="5" fill="#FFBEF3"/>
<path d="M365 468.5C365 478.165 357.165 486 347.5 486C337.835 486 330 478.165 330 468.5C330 458.835 337.835 451 347.5 451C357.165 451 365 458.835 365 468.5Z" fill="white"/>
<path d="M558 582.5C558 592.165 550.165 600 540.5 600C530.835 600 523 592.165 523 582.5C523 572.835 530.835 565 540.5 565C550.165 565 558 572.835 558 582.5Z" fill="#65D3FF"/>
<path d="M203 629.5C203 639.165 195.165 647 185.5 647C175.835 647 168 639.165 168 629.5C168 619.835 175.835 612 185.5 612C195.165 612 203 619.835 203 629.5Z" fill="#FFAB89"/>
<circle cx="552.5" cy="329.5" r="17.5" fill="#FFAB89"/>
<circle cx="553.5" cy="78.5" r="17.5" fill="#FFBEF3"/>
<circle cx="861.5" cy="199.5" r="17.5" fill="#FFF183"/>
<path d="M183 355.5C183 365.165 175.165 373 165.5 373C155.835 373 148 365.165 148 355.5C148 345.835 155.835 338 165.5 338C175.165 338 183 345.835 183 355.5Z" fill="white"/>
<line x1="764.5" y1="118" x2="764.5" y2="375" stroke="#ECA8FF" stroke-width="7"/>
<line x1="622" y1="121" x2="768" y2="121" stroke="#ECA8FF" stroke-width="8"/>
<line x1="622" y1="371.5" x2="761" y2="371.5" stroke="#ECA8FF" stroke-width="7"/>
<line x1="768" y1="242.5" x2="792" y2="242.5" stroke="#ECA8FF" stroke-width="7"/>
</svg>
